<?xml version="1.0" encoding="UTF-8" standalone="no"?>
<svg
   xmlns:dc="http://purl.org/dc/elements/1.1/"
   xmlns:cc="http://creativecommons.org/ns#"
   xmlns:rdf="http://www.w3.org/1999/02/22-rdf-syntax-ns#"
   xmlns:svg="http://www.w3.org/2000/svg"
   xmlns="http://www.w3.org/2000/svg"
   xmlns:sodipodi="http://sodipodi.sourceforge.net/DTD/sodipodi-0.dtd"
   xmlns:inkscape="http://www.inkscape.org/namespaces/inkscape"
   version="1.1"
   x="0px"
   y="0px"
   viewBox="0 0 46.992982 46.969201"
   enable-background="new 0 0 48 48"
   xml:space="preserve"
   id="svg3053"
   inkscape:version="0.48.4 r9939"
   width="100%"
   height="100%"
   sodipodi:docname="trombone.svg"><metadata
     id="metadata3065"><rdf:RDF><cc:Work
         rdf:about=""><dc:format>image/svg+xml</dc:format><dc:type
           rdf:resource="http://purl.org/dc/dcmitype/StillImage" /><dc:title></dc:title></cc:Work></rdf:RDF></metadata><defs
     id="defs3063" /><sodipodi:namedview
     pagecolor="#ffffff"
     bordercolor="#666666"
     borderopacity="1"
     objecttolerance="10"
     gridtolerance="10"
     guidetolerance="10"
     inkscape:pageopacity="0"
     inkscape:pageshadow="2"
     inkscape:window-width="1600"
     inkscape:window-height="870"
     id="namedview3061"
     showgrid="false"
     fit-margin-top="0"
     fit-margin-left="0"
     fit-margin-right="0"
     fit-margin-bottom="0"
     inkscape:zoom="3.9333333"
     inkscape:cx="23.446818"
     inkscape:cy="17.777028"
     inkscape:window-x="0"
     inkscape:window-y="0"
     inkscape:window-maximized="1"
     inkscape:current-layer="svg3053" /><path
     d="m 28.546818,40.74641 16.2,-16.5 c 2.8,-2.8 3,-7.3 0.5,-10.3 -2.8,-3.3 -7.8,-3.5 -10.8,-0.4 l -8.7,8.8 c -0.1,0.1 -0.3,0.1 -0.4,0 l -6,-6.1 c -0.1,-0.1 -0.1,-0.4 0,-0.5 l 2.9,-2.8 c 1.6,-1.6 4.8,-1.3 6.8,-0.9 0.5,0.2 0.9,0.3 1.4,0.4 0,0 0.1,0 0.1,0 0.6,0 1.2,-0.1 1.7,-0.6 2.2,-2.3000002 -2.2,-6.9999999 -3.2,-7.9999999 -1,-1 -5.6,-5.5 -7.8,-3.19999998 -0.5,0.49999998 -0.6,1.09999998 -0.6,1.79999998 0,0 0,0 0,0 0,0.5 0.2,1 0.4,1.5 0.4,1.8 0.7,4.4 -0.2,6.0999999 -0.1,0.1 -0.2,0.3 -0.3,0.4 l -3.2,3.2 c -0.1,0.1 -0.4,0.1 -0.5,0 l -2.8,-2.9 c -0.1,-0.1 -0.1,-0.3 0,-0.4 0.3,-0.6000002 0.3,-1.2999999 -0.2,-1.7999999 -0.6,-0.5 -1.4,-0.5 -2,0.1 l -1.7,1.6999999 c -0.4999997,0.5 -0.5999997,1.4 -0.1999997,1.9 0.3999997,0.6 1.0999997,0.7 1.6999997,0.4 0.1,-0.1 0.3,0 0.4,0.1 l 2.9,2.9 c 0.1,0.1 0.1,0.4 0,0.5 l -2.3,2.3 c -0.1,0.1 -0.3,0.1 -0.4,0 l -2.9999997,-3 c -0.1,-0.1 -0.1,-0.2 0,-0.4 0.3,-0.6 0.2,-1.4 -0.3,-1.8 -0.5000004,-0.4 -1.4000004,-0.3 -1.9000004,0.2 l -1.7,1.7 c -0.5,0.5 -0.6,1.4 -0.2,1.9 0.5,0.6 1.2,0.7 1.8,0.3 0.1,-0.1 0.3,-0.1 0.4,0 l 3.0000001,3 c 0.1,0.1 0.1,0.3 0,0.4 l -2.5000001,2.5 c -0.1,0.2 -0.3,0.2 -0.4,0 l -2.9,-3 c -0.1,-0.1 -0.1,-0.3 -0.1,-0.4 0.2,-0.6 0.1,-1.3 -0.5,-1.7 -0.6,-0.4 -1.4,-0.3 -1.8,0.2 l -1.69999997,1.8 c -0.5,0.5 -0.60000002,1.3 -0.2,1.9 0.5,0.6 1.29999997,0.7 1.89999997,0.3 0.1,-0.1 0.3,0 0.4,0.1 l 2.9,2.9 c 0.1,0.1 0.1,0.3 0,0.5 l -1.9,2 c -2.79999997,2.8 -2.99999997,7.3 -0.5,10.3 2.8,3.3 7.8000001,3.5 10.8000001,0.4 l 4.5,-4.6 3,-3 c 0.1,-0.1 0.2,-0.1 0.3,0 l 6.1,6.2 c 0.1,0.1 0.1,0.3 0,0.4 l -1.2,1.2 c -0.1,0.1 -0.1,0.1 -0.2,0 -1.9,-1.4 -3.9,-1.6 -5.1,-0.4 -1.4,1.4 -0.8,4.1 1.4,6.4 2.2,2.3 4.9,2.9 6.3,1.4 1.2,-1.2 1,-3.2 -0.4,-5.2 -0.1,0 -0.1,-0.1 0,-0.2 z m -16.7,-4.3 c -1.8999997,1.9 -5.0000001,1.8 -6.8000001,-0.3 -1.5,-1.9 -1.2,-4.7 0.5,-6.4 l 1.9,-2 c 0.1,-0.1 0.3,-0.1 0.4,0 l 6.1000001,6.2 c 0.1,0.1 0.1,0.3 0,0.4 l -2.1,2.1 z m 4,-4.5 -6.0999997,-6.2 c -0.1,-0.1 -0.1,-0.3 0,-0.4 l 6.9999997,-7.1 c 0.1,-0.1 0.4,-0.1 0.5,0 l 6,6.1 c 0.1,0.1 0.1,0.3 0,0.5 l -7,7.1 c -0.1,0.1 -0.2,0.1 -0.4,0 z m 13.9,3.1 -6,-6.2 c -0.1,-0.1 -0.1,-0.3 0,-0.5 l 8.2,-8.3 4.4,-4.4 c 1.7,-1.7 4.4,-2 6.3,-0.5 2.1,1.8 2.2,5 0.3,6.9 l -12.8,13 c -0.1,0.1 -0.3,0.1 -0.4,0 z"
     id="path3055"
     inkscape:connector-curvature="0"
     style="fill:#ffffff;fill-opacity:1" /></svg>