<?xml version="1.0" encoding="UTF-8" standalone="no"?>
<svg
   xmlns:dc="http://purl.org/dc/elements/1.1/"
   xmlns:cc="http://creativecommons.org/ns#"
   xmlns:rdf="http://www.w3.org/1999/02/22-rdf-syntax-ns#"
   xmlns:svg="http://www.w3.org/2000/svg"
   xmlns="http://www.w3.org/2000/svg"
   xmlns:sodipodi="http://sodipodi.sourceforge.net/DTD/sodipodi-0.dtd"
   xmlns:inkscape="http://www.inkscape.org/namespaces/inkscape"
   viewBox="0 0 321.77391 413.44592"
   height="413.44592"
   width="321.7739"
   xml:space="preserve"
   id="svg2"
   version="1.1"
   inkscape:version="0.91 r13725"
   sodipodi:docname="wompwomp_newicon.svg"><sodipodi:namedview
     pagecolor="#ffffff"
     bordercolor="#666666"
     borderopacity="1"
     objecttolerance="10"
     gridtolerance="10"
     guidetolerance="10"
     inkscape:pageopacity="0"
     inkscape:pageshadow="2"
     inkscape:window-width="1280"
     inkscape:window-height="703"
     id="namedview4311"
     showgrid="false"
     fit-margin-top="0"
     fit-margin-left="0"
     fit-margin-right="0"
     fit-margin-bottom="0"
     inkscape:zoom="0.69191503"
     inkscape:cx="149.15728"
     inkscape:cy="125.29935"
     inkscape:window-x="0"
     inkscape:window-y="1"
     inkscape:window-maximized="1"
     inkscape:current-layer="svg2" /><metadata
     id="metadata8"><rdf:RDF><cc:Work
         rdf:about=""><dc:format>image/svg+xml</dc:format><dc:type
           rdf:resource="http://purl.org/dc/dcmitype/StillImage" /><dc:title></dc:title></cc:Work></rdf:RDF></metadata><defs
     id="defs6"><clipPath
       id="clipPath18"
       clipPathUnits="userSpaceOnUse"><path
         id="path16"
         d="M 0,768 1024,768 1024,0 0,0 Z"
         inkscape:connector-curvature="0" /></clipPath></defs><g
     transform="matrix(1.3333333,0,0,-1.3333333,-533.50934,718.72292)"
     id="g10"><g
       id="g12"><g
         clip-path="url(#clipPath18)"
         id="g14"><g
           transform="translate(406.1108,358.8922)"
           id="g20"><path
             id="path22"
             style="fill:#6985ec;fill-opacity:1;fill-rule:evenodd;stroke:none"
             d="M 0,0 C -10.121,15.182 -7.591,51.113 9.11,47.571 25.812,44.027 6.675,14.172 23.076,1.519 c 16.399,-12.656 29.051,-9.617 29.051,-9.617 0,0 13.663,42.001 14.677,69.33 0.436,11.802 0.493,19.815 0.42,25.126 -17.322,1.206 -31.008,15.608 -31.008,33.237 0,18.421 14.934,33.355 33.359,33.355 18.423,0 33.357,-14.934 33.357,-33.355 0,-16.073 -11.376,-29.489 -26.514,-32.648 l 0,-54.56 c 0,0 15.689,5.058 39.477,6.074 23.782,1.012 38.966,-4.047 38.966,-4.047 0,0 3.294,57.912 0.347,68.818 -18.18,3.207 -32,19.041 -32,38.143 0.001,21.412 17.359,38.775 38.774,38.775 21.412,0 38.773,-17.363 38.773,-38.775 0,-20.224 -15.492,-36.814 -35.255,-38.597 0.269,-16.204 4.697,-55.232 9.605,-71.912 0,0 14.515,-17.691 21.434,-41.879 7.496,2.682 18.501,7.634 22.893,14.723 6.935,11.206 1.599,32.547 -13.075,46.955 -14.675,14.409 -2.934,27.212 12.539,13.872 15.475,-13.337 22.306,-52.824 5.281,-68.831 -9.892,-9.304 -19.421,-13.186 -25.684,-14.815 0.321,-1.622 0.606,-3.262 0.837,-4.928 4.267,-30.594 48.298,-87.295 32.687,-99.839 -3.182,-0.92 -18.131,9.257 -25.303,8.832 -17.927,-1.066 -20.425,-16.65 -47.737,-5.111 -5.158,2.822 -9.034,5.643 -15.848,2.918 -14.231,-5.687 -13.518,-12.69 -24.19,-7.767 -10.672,4.923 -16.363,12.036 -25.614,4.923 -9.247,-7.112 -22.764,-10.335 -32.015,-6.591 -9.248,3.748 -17.073,10.862 -27.037,8.015 -9.957,-2.847 -10.899,-8.582 -14.937,-9.591 -11.183,-2.787 -14.401,-2.391 -16.806,3.244 -2.404,5.634 8.607,14.674 19.736,19.737 11.137,5.061 15.184,33.91 18.726,49.594 3.544,15.689 11.135,39.98 11.135,39.98 0,0 -42.004,0.509 -52.127,15.693"
             inkscape:connector-curvature="0" /></g><g
           transform="translate(543.102,505.0667)"
           id="g24"><path
             id="path26"
             style="fill:#ffffff;fill-opacity:1;fill-rule:evenodd;stroke:none"
             d="M 0,0 C 7.967,-0.025 16.427,10.754 24.39,10.702 33.219,10.646 41.549,-0.224 50.379,0.253 50.84,-1.714 51.11,-3.76 51.11,-5.87 c 0,-14.73 -11.945,-26.68 -26.679,-26.68 -14.732,0 -26.681,11.95 -26.681,26.68 0,2.06 0.259,4.058 0.701,5.985 C -1.051,0.048 -0.539,0.003 0,0"
             inkscape:connector-curvature="0" /></g><g
           transform="translate(451.5689,484.4454)"
           id="g28"><path
             id="path30"
             style="fill:#ffffff;fill-opacity:1;fill-rule:evenodd;stroke:none"
             d="m 0,0 c 7.971,-0.025 16.313,11.002 24.28,10.95 8.824,-0.056 17.273,-11.173 26.094,-10.698 0.463,-1.97 0.734,-4.009 0.734,-6.124 0,-14.732 -11.945,-26.68 -26.679,-26.68 -14.734,0 -26.68,11.948 -26.68,26.68 0,2.062 0.255,4.058 0.698,5.987 C -1.055,0.048 -0.541,0.003 0,0"
             inkscape:connector-curvature="0" /></g><g
           transform="translate(423.0533,236.1578)"
           id="g32"><path
             id="path34"
             style="fill:#6985ec;fill-opacity:1;fill-rule:evenodd;stroke:none"
             d="m 0,0 c 15.356,9.598 28.315,13.213 42.473,3.974 13.383,-9.768 38.466,16.849 52.991,4.603 14.524,-12.247 35.908,11.562 46.511,4.256 10.603,-7.304 16.439,0.41 33.392,5.255 7.737,2.212 27.404,-8.611 30.466,-4.714 11.787,15.017 -20.799,44.619 -22.781,44.497 5.14,-9.534 19.545,-22.177 15.4,-29.06 -2.882,-7.28 -10.897,-1.459 -20.229,-2.559 C 167.985,25.046 155.955,17.476 142.558,22.057 124.917,28.088 114.117,2.879 90.032,20.894 77.883,29.982 55.381,4.962 37.257,12.915 24.672,17.731 11.477,16.976 -0.496,7.699 -11.856,-1.101 -9.079,-5.675 0,0"
             inkscape:connector-curvature="0" /></g><g
           transform="translate(567.618,509.4629)"
           id="g36"><path
             id="path38"
             style="fill:#231f20;fill-opacity:1;fill-rule:evenodd;stroke:none"
             d="m 0,0 c 5.762,0 10.435,-4.822 10.435,-10.771 0,-5.948 -4.673,-10.77 -10.435,-10.77 -5.763,0 -10.435,4.822 -10.435,10.77 C -10.435,-4.822 -5.763,0 0,0"
             inkscape:connector-curvature="0" /></g><g
           transform="translate(476.0973,487.732)"
           id="g40"><path
             id="path42"
             style="fill:#231f20;fill-opacity:1;fill-rule:evenodd;stroke:none"
             d="m 0,0 c 5.763,0 10.435,-4.824 10.435,-10.771 0,-5.95 -4.672,-10.772 -10.435,-10.772 -5.762,0 -10.435,4.822 -10.435,10.772 C -10.435,-4.824 -5.762,0 0,0"
             inkscape:connector-curvature="0" /></g><g
           transform="translate(482.4352,485.7785)"
           id="g44"><path
             id="path46"
             style="fill:#ffffff;fill-opacity:1;fill-rule:evenodd;stroke:none"
             d="m 0,0 c 2.856,0 5.173,-2.392 5.173,-5.342 0,-2.948 -2.317,-5.339 -5.173,-5.339 -2.858,0 -5.173,2.391 -5.173,5.339 C -5.173,-2.392 -2.858,0 0,0"
             inkscape:connector-curvature="0" /></g><g
           transform="translate(574.0818,508.8762)"
           id="g48"><path
             id="path50"
             style="fill:#ffffff;fill-opacity:1;fill-rule:evenodd;stroke:none"
             d="m 0,0 c 2.858,0 5.173,-2.391 5.173,-5.339 0,-2.951 -2.315,-5.34 -5.173,-5.34 -2.856,0 -5.173,2.389 -5.173,5.34 C -5.173,-2.391 -2.856,0 0,0"
             inkscape:connector-curvature="0" /></g><g
           transform="translate(479.7067,290.3788)"
           id="g52"><path
             id="path54"
             style="fill:#f2f2f2;fill-opacity:1;fill-rule:evenodd;stroke:none"
             d="m 0,0 c 3.235,0 5.856,-2.404 5.856,-5.368 0,-2.964 -2.621,-5.368 -5.856,-5.368 -3.234,0 -5.854,2.404 -5.854,5.368 C -5.854,-2.404 -3.234,0 0,0"
             inkscape:connector-curvature="0" /></g><g
           transform="translate(493.9707,278.8734)"
           id="g56"><path
             id="path58"
             style="fill:#f2f2f2;fill-opacity:1;fill-rule:evenodd;stroke:none"
             d="m 0,0 c 4.712,0 8.533,-3.503 8.533,-7.822 0,-4.32 -3.821,-7.823 -8.533,-7.823 -4.712,0 -8.533,3.503 -8.533,7.823 C -8.533,-3.503 -4.712,0 0,0"
             inkscape:connector-curvature="0" /></g><g
           transform="translate(553.3826,362.9129)"
           id="g60"><path
             id="path62"
             style="fill:#424242;fill-opacity:1;fill-rule:nonzero;stroke:none"
             d="m 0,0 c -10.534,-7.61 -20.707,-8.925 -24.52,-9.144 -3.814,0.219 -13.986,1.534 -24.521,9.144 -13.326,9.626 -32.517,17.937 -32.517,-4.597 0,-20.034 8.884,-49.903 46.444,-56.283 5.262,-0.866 10.243,-0.673 15.537,-0.775 42.349,4.217 52.094,36.052 52.094,57.058 C 32.517,17.937 13.327,9.626 0,0"
             inkscape:connector-curvature="0" /></g><g
           transform="translate(528.8623,353.7686)"
           id="g64"><path
             id="path66"
             style="fill:#efefe8;fill-opacity:1;fill-rule:nonzero;stroke:none"
             d="M 0,0 C -0.761,0.044 -1.787,0.135 -3.009,0.308 L -3.011,0.307 c 0,0 -0.984,-16.39 18.715,-15.146 19.696,1.243 10.421,25.105 10.419,25.11 C 25.581,9.898 25.046,9.523 24.52,9.144 13.986,1.535 3.813,0.22 0,0"
             inkscape:connector-curvature="0" /></g><g
           transform="translate(495.718,368.3566)"
           id="g68"><path
             id="path70"
             style="fill:#efefe8;fill-opacity:1;fill-rule:nonzero;stroke:none"
             d="M 0,0 C -0.001,-0.007 -8.173,-26.926 12.907,-29.494 28.64,-31.412 29.55,-20.013 29,-14.104 24.032,-13.262 16.43,-11.083 8.624,-5.444 5.921,-3.491 2.977,-1.599 0,0"
             inkscape:connector-curvature="0" /></g></g></g></g></svg>