<?xml version="1.0" standalone="no"?>
<!DOCTYPE svg PUBLIC "-//W3C//DTD SVG 20010904//EN"
 "http://www.w3.org/TR/2001/REC-SVG-20010904/DTD/svg10.dtd">
<svg version="1.0" xmlns="http://www.w3.org/2000/svg"
 width="826.000000pt" height="826.000000pt" viewBox="0 0 826.000000 826.000000"
 preserveAspectRatio="xMidYMid meet">
<metadata>
Created by potrace 1.11, written by Peter Selinger 2001-2013
</metadata>
<g transform="translate(0.000000,826.000000) scale(0.100000,-0.100000)"
fill="#000000" stroke="none">
<path d="M5220 8244 c-103 -21 -123 -26 -163 -42 -16 -7 -31 -12 -33 -12 -25
0 -189 -92 -259 -145 -75 -57 -225 -218 -225 -240 0 -5 -6 -16 -14 -24 -51
-58 -126 -252 -149 -388 -13 -75 -14 -280 -2 -333 3 -14 8 -36 11 -50 10 -50
37 -136 57 -180 41 -93 81 -164 127 -225 34 -45 185 -193 192 -189 4 3 8 1 8
-4 0 -12 123 -88 200 -125 30 -14 99 -38 152 -53 l97 -27 6 -51 c3 -28 8 -69
11 -91 8 -57 8 -799 0 -990 -4 -88 -9 -209 -11 -270 -3 -95 -15 -339 -19 -400
-1 -20 -11 -22 -56 -11 -113 27 -206 45 -255 51 -22 2 -49 7 -60 9 -21 5 -83
12 -230 25 -95 9 -509 6 -610 -3 -204 -20 -383 -42 -480 -61 -137 -26 -203
-40 -285 -61 -52 -13 -99 -24 -105 -24 -7 0 -10 223 -9 713 1 391 2 717 3 723
0 6 22 17 49 24 236 63 457 247 564 470 27 56 57 130 53 130 -1 0 5 32 15 71
14 55 18 100 16 202 -2 73 -6 142 -10 155 -3 12 -8 30 -10 40 -22 97 -91 243
-151 321 -51 67 -178 181 -248 224 -42 25 -77 43 -77 39 0 -4 -4 -2 -8 4 -8
13 -152 64 -196 71 -166 23 -224 22 -371 -2 -68 -11 -199 -64 -285 -116 -157
-95 -312 -291 -369 -469 -6 -19 -11 -38 -12 -42 0 -4 -5 -22 -10 -40 -15 -48
-22 -121 -21 -219 1 -318 180 -607 473 -768 45 -25 156 -66 202 -75 6 -2 23
-6 37 -9 14 -4 43 -8 65 -10 l40 -3 -1 -295 c-2 -342 -8 -497 -29 -659 -2 -19
-7 -57 -11 -85 -3 -27 -8 -59 -10 -70 -6 -28 -12 -64 -19 -105 -3 -19 -10 -57
-15 -85 -5 -27 -12 -66 -16 -85 -7 -43 -12 -65 -14 -65 -1 0 -3 -11 -5 -25 -2
-14 -15 -72 -28 -130 -14 -58 -28 -116 -30 -130 -3 -14 -8 -32 -11 -40 -3 -8
-8 -26 -10 -40 -9 -45 -55 -220 -60 -228 -3 -5 -7 -19 -10 -33 -2 -13 -18 -73
-36 -134 -17 -60 -33 -119 -35 -130 -3 -11 -14 -45 -25 -75 -11 -30 -20 -62
-20 -71 0 -29 -27 -41 -97 -40 -125 0 -233 21 -353 69 -73 29 -187 87 -211
108 -8 8 -20 14 -26 14 -6 0 -13 4 -15 8 -1 5 -23 22 -48 39 -67 45 -125 109
-160 175 -17 32 -28 58 -24 58 3 0 2 6 -3 12 -35 45 -46 254 -29 548 4 69 7
130 8 135 0 15 -12 115 -18 150 -19 94 -111 170 -214 177 -130 7 -224 -59
-290 -205 -25 -56 -51 -147 -55 -187 0 -9 -3 -20 -6 -25 -21 -39 -18 -374 4
-480 2 -11 8 -38 12 -60 5 -22 9 -42 10 -45 44 -154 100 -262 175 -338 34 -34
68 -62 76 -62 8 0 14 -4 14 -9 0 -12 168 -92 260 -124 41 -14 129 -40 195 -56
110 -27 147 -35 234 -46 17 -2 38 -6 48 -9 29 -8 286 -33 433 -41 36 -2 66 -4
67 -4 0 -1 -8 -29 -18 -63 -30 -94 -75 -248 -115 -388 -19 -69 -41 -145 -49
-170 -11 -37 -34 -124 -61 -230 -2 -8 -8 -33 -14 -55 -6 -22 -13 -51 -16 -65
-3 -14 -8 -34 -11 -45 -8 -24 -7 -19 -17 -75 -4 -25 -16 -82 -27 -127 -10 -44
-21 -94 -24 -110 -2 -15 -7 -37 -9 -48 -3 -11 -12 -54 -21 -95 -9 -41 -19 -86
-21 -100 -3 -14 -14 -59 -25 -100 -11 -41 -22 -83 -24 -94 -35 -151 -156 -453
-186 -464 -5 -2 -9 -9 -9 -16 0 -31 -103 -116 -202 -166 -57 -29 -110 -58
-119 -66 -8 -8 -18 -14 -22 -14 -13 0 -137 -92 -137 -102 0 -6 -3 -9 -6 -5
-10 10 -109 -89 -151 -150 -32 -47 -37 -62 -38 -112 0 -47 5 -65 29 -99 45
-66 68 -76 174 -77 50 -1 92 1 92 5 0 3 12 7 26 8 14 1 52 9 83 18 31 8 61 16
68 16 7 1 49 37 95 80 53 50 109 92 158 117 41 22 78 40 82 40 12 2 31 7 63
18 53 17 184 9 260 -17 39 -13 158 -66 265 -119 113 -56 220 -102 255 -109
112 -25 219 -21 380 12 79 16 242 88 318 140 21 14 40 26 43 26 3 0 14 8 24
18 34 32 103 64 164 76 51 11 69 10 121 -4 50 -13 217 -91 235 -110 10 -11
175 -92 223 -110 28 -11 54 -17 58 -14 4 2 10 0 13 -4 7 -11 96 2 128 19 13 6
61 38 108 70 103 69 220 136 255 145 6 2 30 10 55 20 46 17 135 22 180 11 14
-3 32 -7 40 -9 8 -2 62 -27 120 -55 110 -54 157 -75 177 -79 15 -3 83 -23 103
-31 49 -19 114 -26 240 -27 150 -1 192 11 405 113 131 63 208 94 266 107 13 3
35 8 49 11 82 18 224 -3 315 -47 31 -14 139 -63 145 -64 3 -1 34 -16 70 -33
220 -105 238 -105 291 -1 68 132 2 434 -180 820 -23 48 -41 92 -41 97 0 6 -5
11 -12 11 -6 0 -9 3 -5 6 3 3 -63 144 -147 312 -238 477 -336 684 -396 837 -4
11 -15 36 -23 55 -22 51 -83 238 -95 290 -14 60 -23 101 -27 125 -2 11 -9 49
-15 84 -6 35 -8 67 -3 71 4 4 39 17 77 30 38 12 99 36 135 53 36 17 68 31 71
31 3 1 16 9 30 17 14 9 50 31 80 49 99 61 203 143 288 227 45 45 82 86 82 92
0 5 7 16 15 25 43 42 115 229 140 361 25 132 25 425 0 538 -2 12 -7 36 -9 52
-10 62 -45 195 -66 250 -52 136 -74 186 -81 191 -5 3 -7 9 -4 14 3 4 -2 13
-10 20 -8 7 -15 17 -15 22 0 43 -238 318 -275 318 -3 0 -23 11 -44 25 -67 42
-152 65 -222 61 -35 -2 -65 -9 -67 -15 -2 -6 -7 -9 -12 -6 -11 7 -61 -45 -76
-81 -14 -33 -12 -130 4 -179 22 -71 81 -154 184 -260 176 -183 330 -455 372
-660 4 -16 9 -41 12 -55 12 -56 17 -120 17 -205 -2 -260 -117 -420 -413 -577
-92 -49 -269 -122 -276 -115 -3 2 -6 13 -8 23 -4 18 -40 131 -53 164 -4 8 -7
17 -8 20 -13 53 -176 412 -195 430 -5 5 -25 40 -64 115 -21 40 -146 230 -207
315 -18 25 -38 65 -46 89 -17 59 -91 413 -99 481 -2 14 -6 40 -9 59 -8 45 -18
112 -19 134 0 9 -4 17 -9 17 -4 0 -6 4 -2 9 3 6 -1 56 -10 113 -14 100 -23
171 -30 253 -2 22 -6 54 -9 70 -3 17 -9 59 -12 95 -3 36 -7 81 -9 100 -4 33
-8 88 -21 235 -2 33 -7 115 -10 181 l-5 122 46 7 c62 9 73 11 120 24 22 6 42
10 45 10 3 0 42 15 88 35 87 36 205 106 257 151 76 66 175 169 175 181 0 2 15
25 33 51 70 104 113 200 146 328 25 98 33 280 17 400 -17 131 -94 319 -181
441 -142 198 -376 356 -600 405 -33 7 -67 14 -75 16 -42 11 -281 9 -340 -3z"/>
</g>
</svg>
